<mxfile host="app.diagrams.net" modified="2024-04-09T11:10:26.877Z" agent="Mozilla/5.0 (Macintosh; Intel Mac OS X 10_15_7) AppleWebKit/537.36 (KHTML, like Gecko) Chrome/123.0.0.0 Safari/537.36" version="24.2.1" etag="wHsqLpQrK-8ZxA8XOqHT" type="github">
  <diagram name="第 1 页" id="-45SJuX6L2Joph2Np3Fv">
    <mxGraphModel>
      <root>
        <mxCell id="0" />
        <mxCell id="1" parent="0" />
      </root>
    </mxGraphModel>
  </diagram>
</mxfile>
